<svg width="12" height="12" viewBox="0 0 10 10" fill="none" xmlns="http://www.w3.org/2000/svg">
<path d="M8.91783 8.13487C8.8433 8.13482 8.77184 8.1052 8.71913 8.05249C8.66643 7.99979 8.6368 7.92833 8.63676 7.85379L8.63643 3.75998L3.28308 9.11333C3.23033 9.16607 3.15879 9.19571 3.0842 9.19571C3.00961 9.19571 2.93807 9.16607 2.88533 9.11333C2.83258 9.06058 2.80295 8.98905 2.80295 8.91446C2.80295 8.83986 2.83258 8.76833 2.88533 8.71558L8.23868 3.36223L4.14486 3.3619C4.07203 3.35933 4.00304 3.32859 3.95243 3.27616C3.90182 3.22373 3.87353 3.1537 3.87353 3.08082C3.87353 3.00795 3.90182 2.93792 3.95243 2.88549C4.00305 2.83306 4.07203 2.80232 4.14486 2.79975L8.91783 2.79975C8.99236 2.7998 9.06383 2.82942 9.11653 2.88213C9.16923 2.93483 9.19886 3.00629 9.19891 3.08082L9.19891 7.8538C9.19886 7.92833 9.16923 7.99979 9.11653 8.05249C9.06383 8.1052 8.99236 8.13482 8.91783 8.13487Z" fill="white"/>
</svg>
